<svg width="18" height="20" viewBox="0 0 18 20" fill="none" xmlns="http://www.w3.org/2000/svg">
<path d="M17.25 0H3.75C2.75544 0 1.80161 0.39021 1.09835 1.08479C0.395088 1.77937 0 2.72142 0 3.7037V10.3704C0 10.9597 0.237053 11.525 0.65901 11.9417C1.08097 12.3585 1.65326 12.5926 2.25 12.5926H6.75L6.01031 16.9139C6.00358 16.9546 6.00013 16.9958 6 17.037C6 17.8229 6.31607 18.5765 6.87868 19.1322C7.44129 19.6878 8.20435 20 9 20C9.79565 20 10.5587 19.6878 11.1213 19.1322C11.6839 18.5765 12 17.8229 12 17.037C11.9999 16.9958 11.9964 16.9546 11.9897 16.9139L11.25 12.5926H15.75C16.3467 12.5926 16.919 12.3585 17.341 11.9417C17.7629 11.525 18 10.9597 18 10.3704V0.740741C18 0.544284 17.921 0.355874 17.7803 0.216958C17.6397 0.0780421 17.4489 0 17.25 0ZM3.75 1.48148H13.5V5.18518C13.5 5.38164 13.579 5.57005 13.7197 5.70897C13.8603 5.84788 14.0511 5.92593 14.25 5.92593C14.4489 5.92593 14.6397 5.84788 14.7803 5.70897C14.921 5.57005 15 5.38164 15 5.18518V1.48148H16.5V8.14815H1.5V3.7037C1.5 3.11433 1.73705 2.5491 2.15901 2.13236C2.58097 1.71561 3.15326 1.48148 3.75 1.48148Z" fill="white"/>
</svg>
