<svg width="18" height="18" viewBox="0 0 18 18" fill="none" xmlns="http://www.w3.org/2000/svg">
<path d="M9 0C7.21997 0 5.47991 0.527841 3.99987 1.51677C2.51983 2.50571 1.36628 3.91131 0.685088 5.55585C0.00389956 7.20038 -0.17433 9.00998 0.172936 10.7558C0.520203 12.5016 1.37737 14.1053 2.63604 15.364C3.89471 16.6226 5.49836 17.4798 7.24419 17.8271C8.99002 18.1743 10.7996 17.9961 12.4442 17.3149C14.0887 16.6337 15.4943 15.4802 16.4832 14.0001C17.4722 12.5201 18 10.78 18 9C17.9975 6.61382 17.0485 4.3261 15.3612 2.63882C13.6739 0.95154 11.3862 0.00251984 9 0ZM2.07693 9.69231C1.89332 9.69231 1.71722 9.61937 1.58739 9.48953C1.45756 9.3597 1.38462 9.18361 1.38462 9C1.38462 8.81639 1.45756 8.6403 1.58739 8.51046C1.71722 8.38063 1.89332 8.30769 2.07693 8.30769H4.15385C4.33746 8.30769 4.51355 8.38063 4.64338 8.51046C4.77322 8.6403 4.84616 8.81639 4.84616 9C4.84616 9.18361 4.77322 9.3597 4.64338 9.48953C4.51355 9.61937 4.33746 9.69231 4.15385 9.69231H2.07693ZM6.06289 12.9159L4.59173 14.387C4.52741 14.4513 4.45105 14.5024 4.36701 14.5372C4.28297 14.572 4.19289 14.5899 4.10193 14.5899C4.01096 14.5899 3.92089 14.572 3.83684 14.5372C3.7528 14.5024 3.67644 14.4513 3.61212 14.387C3.5478 14.3227 3.49677 14.2463 3.46196 14.1623C3.42715 14.0782 3.40923 13.9882 3.40923 13.8972C3.40923 13.8062 3.42715 13.7162 3.46196 13.6321C3.49677 13.5481 3.5478 13.4717 3.61212 13.4074L5.08327 11.9362C5.21416 11.8119 5.38845 11.7436 5.56898 11.7459C5.7495 11.7482 5.92199 11.821 6.04965 11.9486C6.17731 12.0763 6.25005 12.2488 6.25236 12.4293C6.25468 12.6098 6.18637 12.7841 6.06202 12.915L6.06289 12.9159ZM6.06289 6.06288C5.93307 6.19262 5.75704 6.26549 5.57351 6.26549C5.38998 6.26549 5.21396 6.19262 5.08414 6.06288L3.61298 4.59173C3.54883 4.52729 3.498 4.45085 3.46339 4.36677C3.42878 4.28269 3.41107 4.19262 3.41127 4.10169C3.41168 3.91806 3.48501 3.74211 3.61515 3.61255C3.74528 3.48299 3.92155 3.41043 4.10519 3.41083C4.28882 3.41124 4.46477 3.48458 4.59433 3.61471L6.06548 5.08586C6.19435 5.21596 6.26642 5.3918 6.26593 5.57491C6.26545 5.75802 6.19244 5.93348 6.06289 6.06288ZM9.69231 15.9231C9.69231 16.1067 9.61937 16.2828 9.48954 16.4126C9.3597 16.5424 9.18361 16.6154 9 16.6154C8.81639 16.6154 8.6403 16.5424 8.51047 16.4126C8.38063 16.2828 8.30769 16.1067 8.30769 15.9231V13.8462C8.30769 13.6625 8.38063 13.4864 8.51047 13.3566C8.6403 13.2268 8.81639 13.1538 9 13.1538C9.18361 13.1538 9.3597 13.2268 9.48954 13.3566C9.61937 13.4864 9.69231 13.6625 9.69231 13.8462V15.9231ZM9.69231 4.15385C9.69231 4.33746 9.61937 4.51355 9.48954 4.64338C9.3597 4.77321 9.18361 4.84615 9 4.84615C8.81639 4.84615 8.6403 4.77321 8.51047 4.64338C8.38063 4.51355 8.30769 4.33746 8.30769 4.15385V2.07692C8.30769 1.89331 8.38063 1.71722 8.51047 1.58739C8.6403 1.45755 8.81639 1.38462 9 1.38462C9.18361 1.38462 9.3597 1.45755 9.48954 1.58739C9.61937 1.71722 9.69231 1.89331 9.69231 2.07692V4.15385ZM14.3853 14.3853C14.321 14.4497 14.2446 14.5007 14.1606 14.5356C14.0765 14.5704 13.9865 14.5883 13.8955 14.5883C13.8045 14.5883 13.7144 14.5704 13.6304 14.5356C13.5463 14.5007 13.47 14.4497 13.4057 14.3853L11.9345 12.9141C11.8102 12.7832 11.7419 12.609 11.7442 12.4284C11.7465 12.2479 11.8192 12.0754 11.9469 11.9478C12.0746 11.8201 12.247 11.7474 12.4276 11.745C12.6081 11.7427 12.7824 11.811 12.9133 11.9354L14.3844 13.4065C14.5143 13.5362 14.5873 13.7122 14.5875 13.8957C14.5876 14.0793 14.5149 14.2554 14.3853 14.3853ZM15.9231 9.69231H13.8462C13.6625 9.69231 13.4865 9.61937 13.3566 9.48953C13.2268 9.3597 13.1538 9.18361 13.1538 9C13.1538 8.81639 13.2268 8.6403 13.3566 8.51046C13.4865 8.38063 13.6625 8.30769 13.8462 8.30769H15.9231C16.1067 8.30769 16.2828 8.38063 16.4126 8.51046C16.5424 8.6403 16.6154 8.81639 16.6154 9C16.6154 9.18361 16.5424 9.3597 16.4126 9.48953C16.2828 9.61937 16.1067 9.69231 15.9231 9.69231Z" fill="white"/>
</svg>
