<svg width="18" height="19" viewBox="0 0 18 19" fill="none" xmlns="http://www.w3.org/2000/svg">
<path d="M18 2.2774V13.6792C17.9994 13.7874 17.976 13.8942 17.9314 13.9925C17.8868 14.0909 17.8219 14.1784 17.7413 14.2493C16.3088 15.5063 14.9391 15.9595 13.6331 15.9595C11.8603 15.9595 10.2047 15.1291 8.66438 14.3585C6.17531 13.1091 4.01156 12.0269 1.5 14.0374V18.2399C1.5 18.4415 1.42098 18.6348 1.28033 18.7774C1.13968 18.9199 0.948912 19 0.75 19C0.551088 19 0.360322 18.9199 0.21967 18.7774C0.0790178 18.6348 0 18.4415 0 18.2399V2.2774C0.000719116 2.16912 0.0242604 2.06223 0.0690469 1.96391C0.113833 1.86559 0.178831 1.77811 0.259688 1.70732C3.63469 -1.25524 6.66375 0.262142 9.33375 1.6009C11.9062 2.8912 14.1366 4.00667 16.7587 1.70732C16.8671 1.6121 17.0002 1.55037 17.1421 1.52946C17.2841 1.50855 17.4289 1.52933 17.5596 1.58933C17.6902 1.64933 17.8012 1.74604 17.8792 1.868C17.9573 1.98996 17.9992 2.13204 18 2.2774Z" fill="white"/>
</svg>
