<svg width="18" height="18" viewBox="0 0 18 18" fill="none" xmlns="http://www.w3.org/2000/svg">
<path d="M9 0C7.21997 0 5.47991 0.527841 3.99987 1.51677C2.51983 2.50571 1.36628 3.91131 0.685088 5.55585C0.00389956 7.20038 -0.17433 9.00998 0.172936 10.7558C0.520203 12.5016 1.37737 14.1053 2.63604 15.364C3.89471 16.6226 5.49836 17.4798 7.24419 17.8271C8.99002 18.1743 10.7996 17.9961 12.4442 17.3149C14.0887 16.6337 15.4943 15.4802 16.4832 14.0001C17.4722 12.5201 18 10.78 18 9C17.9975 6.61382 17.0485 4.3261 15.3612 2.63882C13.6739 0.95154 11.3862 0.00251984 9 0ZM8.65385 4.15385C8.85924 4.15385 9.06001 4.21475 9.23079 4.32886C9.40156 4.44297 9.53466 4.60515 9.61326 4.7949C9.69186 4.98466 9.71243 5.19346 9.67236 5.3949C9.63229 5.59634 9.53338 5.78138 9.38815 5.92661C9.24292 6.07184 9.05788 6.17074 8.85644 6.21081C8.655 6.25088 8.4462 6.23032 8.25645 6.15172C8.06669 6.07312 7.90451 5.94002 7.7904 5.76924C7.67629 5.59847 7.61539 5.39769 7.61539 5.19231C7.61539 4.91689 7.7248 4.65275 7.91955 4.458C8.11429 4.26325 8.37843 4.15385 8.65385 4.15385ZM9.69231 13.8462C9.32509 13.8462 8.9729 13.7003 8.71324 13.4406C8.45357 13.1809 8.30769 12.8288 8.30769 12.4615V9C8.12408 9 7.94799 8.92706 7.81816 8.79723C7.68833 8.66739 7.61539 8.4913 7.61539 8.30769C7.61539 8.12408 7.68833 7.94799 7.81816 7.81816C7.94799 7.68832 8.12408 7.61538 8.30769 7.61538C8.67492 7.61538 9.0271 7.76126 9.28677 8.02093C9.54643 8.28059 9.69231 8.63278 9.69231 9V12.4615C9.87592 12.4615 10.052 12.5345 10.1818 12.6643C10.3117 12.7941 10.3846 12.9702 10.3846 13.1538C10.3846 13.3375 10.3117 13.5135 10.1818 13.6434C10.052 13.7732 9.87592 13.8462 9.69231 13.8462Z" fill="white"/>
</svg>
