<svg width="18" height="19" viewBox="0 0 18 19" fill="none" xmlns="http://www.w3.org/2000/svg">
<path d="M18 9.11963V18.24C18 18.4415 17.921 18.6349 17.7803 18.7774C17.6397 18.9199 17.4489 19 17.25 19H12C11.8011 19 11.6103 18.9199 11.4697 18.7774C11.329 18.6349 11.25 18.4415 11.25 18.24V13.2998C11.25 13.199 11.2105 13.1023 11.1402 13.0311C11.0698 12.9598 10.9745 12.9198 10.875 12.9198H7.125C7.02554 12.9198 6.93016 12.9598 6.85983 13.0311C6.78951 13.1023 6.75 13.199 6.75 13.2998V18.24C6.75 18.4415 6.67098 18.6349 6.53033 18.7774C6.38968 18.9199 6.19891 19 6 19H0.75C0.551088 19 0.360322 18.9199 0.21967 18.7774C0.0790178 18.6349 0 18.4415 0 18.24V9.11963C0.000184396 8.71656 0.15834 8.33007 0.439687 8.04514L7.93969 0.444862C8.22096 0.160012 8.60235 0 9 0C9.39765 0 9.77904 0.160012 10.0603 0.444862L17.5603 8.04514C17.8417 8.33007 17.9998 8.71656 18 9.11963Z" fill="white"/>
</svg>
