<svg width="22" height="21" viewBox="0 0 22 21" fill="none" xmlns="http://www.w3.org/2000/svg">
<path d="M8.64286 13.2222C8.64286 13.4285 8.56008 13.6263 8.41273 13.7722C8.26538 13.9181 8.06553 14 7.85714 14H3.92857C3.72019 14 3.52034 13.9181 3.37299 13.7722C3.22564 13.6263 3.14286 13.4285 3.14286 13.2222C3.14286 13.0159 3.22564 12.8181 3.37299 12.6722C3.52034 12.5264 3.72019 12.4444 3.92857 12.4444H7.85714C8.06553 12.4444 8.26538 12.5264 8.41273 12.6722C8.56008 12.8181 8.64286 13.0159 8.64286 13.2222ZM14.9286 1.55556H17.2857C17.4941 1.55556 17.6939 1.47361 17.8413 1.32775C17.9886 1.18189 18.0714 0.984057 18.0714 0.777778C18.0714 0.571498 17.9886 0.373667 17.8413 0.227806C17.6939 0.0819442 17.4941 0 17.2857 0H14.1429C13.9345 0 13.7346 0.0819442 13.5873 0.227806C13.4399 0.373667 13.3571 0.571498 13.3571 0.777778V3.88889H14.9286V1.55556ZM22 9.72222V15.5556C22 15.9681 21.8344 16.3638 21.5397 16.6555C21.245 16.9472 20.8453 17.1111 20.4286 17.1111H11.7857V20.2222C11.7857 20.4285 11.7029 20.6263 11.5556 20.7722C11.4082 20.9181 11.2084 21 11 21C10.7916 21 10.5918 20.9181 10.4444 20.7722C10.2971 20.6263 10.2143 20.4285 10.2143 20.2222V17.1111H1.57143C1.15466 17.1111 0.754961 16.9472 0.460261 16.6555C0.165561 16.3638 0 15.9681 0 15.5556V9.72222C0.00181953 8.17568 0.623257 6.69299 1.72799 5.59942C2.83272 4.50585 4.33053 3.89069 5.89286 3.88889H13.3571V12.4444C13.3571 12.6507 13.4399 12.8486 13.5873 12.9944C13.7346 13.1403 13.9345 13.2222 14.1429 13.2222C14.3512 13.2222 14.5511 13.1403 14.6984 12.9944C14.8458 12.8486 14.9286 12.6507 14.9286 12.4444V3.88889H16.1071C17.6695 3.89069 19.1673 4.50585 20.272 5.59942C21.3767 6.69299 21.9982 8.17568 22 9.72222ZM10.2143 9.72222C10.2143 8.58769 9.75899 7.49962 8.94857 6.69738C8.13814 5.89514 7.03897 5.44444 5.89286 5.44444C4.74674 5.44444 3.64757 5.89514 2.83715 6.69738C2.02672 7.49962 1.57143 8.58769 1.57143 9.72222V15.5556H10.2143V9.72222Z" fill="white"/>
</svg>
