<svg width="23" height="17" viewBox="0 0 23 17" fill="none" xmlns="http://www.w3.org/2000/svg">
<path d="M22.6917 6.33857C22.5392 6.13026 22.3387 5.96069 22.1066 5.84386C21.8745 5.72703 21.6175 5.66629 21.3569 5.66667H19.714V4.04762C19.714 3.61822 19.541 3.20641 19.2329 2.90278C18.9248 2.59915 18.5069 2.42857 18.0712 2.42857H10.9526L8.10535 0.32381C7.8205 0.11453 7.47494 0.00101193 7.11965 0H1.64284C1.20713 0 0.789268 0.170578 0.481176 0.474208C0.173084 0.777838 0 1.18965 0 1.61905V16.1905C0 16.4052 0.086542 16.6111 0.240588 16.7629C0.394634 16.9147 0.603565 17 0.821419 17H19.2109C19.3833 17 19.5514 16.9466 19.6912 16.8472C19.8311 16.7479 19.9357 16.6077 19.9902 16.4465L22.9155 7.79774C22.9978 7.55438 23.0204 7.29528 22.9815 7.04165C22.9426 6.78803 22.8433 6.54709 22.6917 6.33857ZM7.11965 1.61905L10.1856 3.88571C10.3278 3.99081 10.5007 4.04762 10.6784 4.04762H18.0712V5.66667H4.69954C4.35472 5.66664 4.01864 5.77354 3.7389 5.97223C3.45916 6.17091 3.24995 6.45131 3.1409 6.77369L1.64284 11.2018V1.61905H7.11965Z" fill="white"/>
</svg>
