<svg width="62" height="51" viewBox="0 0 62 51" fill="none" xmlns="http://www.w3.org/2000/svg">
<path d="M61.4829 17.0159L47.0153 0.696139C46.8218 0.478074 46.5835 0.303198 46.3162 0.183162C46.0489 0.0631256 45.7588 0.000685285 45.4652 0H16.5298C16.2362 0.000685285 15.946 0.0631256 15.6787 0.183162C15.4115 0.303198 15.1732 0.478074 14.9797 0.696139L0.512047 17.0159C0.17453 17.3962 -0.00785537 17.8867 0.000259605 18.3923C0.00837458 18.8978 0.206412 19.3824 0.555967 19.752L29.4913 50.3515C29.6847 50.5561 29.9187 50.7193 30.1787 50.8309C30.4387 50.9424 30.7191 51 31.0027 51C31.2862 51 31.5666 50.9424 31.8266 50.8309C32.0867 50.7193 32.3206 50.5561 32.514 50.3515L61.4493 19.752C61.7975 19.3811 61.9936 18.8959 61.9998 18.3903C62.0061 17.8848 61.8218 17.395 61.4829 17.0159ZM55.3781 16.3197H44.4317L35.1311 4.07994H44.5273L55.3781 16.3197ZM17.1964 20.3997L24.9805 39.6085L6.8184 20.3997H17.1964ZM44.7986 20.3997H55.1766L37.0145 39.6085L44.7986 20.3997ZM17.4676 4.07994H26.8639L17.5632 16.3197H6.61689L17.4676 4.07994Z" fill="white"/>
</svg>
