<svg width="20" height="16" viewBox="0 0 20 16" fill="none" xmlns="http://www.w3.org/2000/svg">
<path d="M8.46154 7.27273C8.46154 7.56041 8.37131 7.84163 8.20226 8.08083C8.03321 8.32003 7.79294 8.50646 7.51182 8.61655C7.2307 8.72664 6.92137 8.75545 6.62294 8.69932C6.32451 8.6432 6.05038 8.50467 5.83522 8.30125C5.62006 8.09782 5.47354 7.83865 5.41418 7.5565C5.35481 7.27434 5.38528 6.98188 5.50172 6.7161C5.61817 6.45031 5.81535 6.22314 6.06835 6.06332C6.32135 5.90349 6.6188 5.81818 6.92308 5.81818C7.3311 5.81818 7.72242 5.97143 8.01093 6.24421C8.29945 6.51699 8.46154 6.88696 8.46154 7.27273ZM20 1.45455V14.5455C20 14.9312 19.8379 15.3012 19.5494 15.574C19.2609 15.8468 18.8696 16 18.4615 16H1.53846C1.13044 16 0.739122 15.8468 0.450605 15.574C0.162087 15.3012 0 14.9312 0 14.5455V1.45455C0 1.06878 0.162087 0.698807 0.450605 0.426026C0.739122 0.153246 1.13044 0 1.53846 0H18.4615C18.8696 0 19.2609 0.153246 19.5494 0.426026C19.8379 0.698807 20 1.06878 20 1.45455ZM10.7452 11.4545C10.4963 10.5758 9.90605 9.81815 9.09231 9.33273C9.52445 8.92658 9.81932 8.40826 9.93953 7.84348C10.0597 7.2787 9.99988 6.69289 9.76753 6.16032C9.53519 5.62774 9.14082 5.17238 8.63443 4.85196C8.12803 4.53154 7.53241 4.36049 6.92308 4.36049C6.31374 4.36049 5.71812 4.53154 5.21173 4.85196C4.70533 5.17238 4.31097 5.62774 4.07862 6.16032C3.84628 6.69289 3.78641 7.2787 3.90662 7.84348C4.02683 8.40826 4.3217 8.92658 4.75385 9.33273C3.94063 9.81868 3.35058 10.5761 3.10096 11.4545C3.04996 11.6414 3.07956 11.8398 3.18324 12.006C3.28693 12.1722 3.45621 12.2927 3.65385 12.3409C3.85148 12.3891 4.06129 12.3611 4.2371 12.2631C4.41292 12.1651 4.54034 12.005 4.59135 11.8182C4.84519 10.8864 5.84712 10.1818 6.92308 10.1818C7.99904 10.1818 9.00192 10.8845 9.25481 11.8182C9.30581 12.005 9.43324 12.1651 9.60905 12.2631C9.78487 12.3611 9.99467 12.3891 10.1923 12.3409C10.3899 12.2927 10.5592 12.1722 10.6629 12.006C10.7666 11.8398 10.7962 11.6414 10.7452 11.4545ZM16.9231 9.45455C16.9231 9.26166 16.842 9.07668 16.6978 8.94029C16.5535 8.8039 16.3579 8.72727 16.1538 8.72727H12.3077C12.1037 8.72727 11.908 8.8039 11.7638 8.94029C11.6195 9.07668 11.5385 9.26166 11.5385 9.45455C11.5385 9.64743 11.6195 9.83242 11.7638 9.96881C11.908 10.1052 12.1037 10.1818 12.3077 10.1818H16.1538C16.3579 10.1818 16.5535 10.1052 16.6978 9.96881C16.842 9.83242 16.9231 9.64743 16.9231 9.45455ZM16.9231 6.54545C16.9231 6.35257 16.842 6.16759 16.6978 6.0312C16.5535 5.89481 16.3579 5.81818 16.1538 5.81818H12.3077C12.1037 5.81818 11.908 5.89481 11.7638 6.0312C11.6195 6.16759 11.5385 6.35257 11.5385 6.54545C11.5385 6.73834 11.6195 6.92332 11.7638 7.05971C11.908 7.1961 12.1037 7.27273 12.3077 7.27273H16.1538C16.3579 7.27273 16.5535 7.1961 16.6978 7.05971C16.842 6.92332 16.9231 6.73834 16.9231 6.54545Z" fill="white"/>
</svg>
